<?xml version="1.0" standalone="no"?>
<!DOCTYPE svg PUBLIC "-//W3C//DTD SVG 20010904//EN"
 "http://www.w3.org/TR/2001/REC-SVG-20010904/DTD/svg10.dtd">
<svg version="1.0" xmlns="http://www.w3.org/2000/svg"
 width="380.000000pt" height="380.000000pt" viewBox="0 0 380.000000 380.000000"
 preserveAspectRatio="xMidYMid meet">
<metadata>
Created by potrace 1.11, written by Peter Selinger 2001-2013
</metadata>
<g transform="translate(0.000000,380.000000) scale(0.100000,-0.100000)"
fill="#000000" stroke="none">
<path d="M137 3615 c-4 -8 -3 -17 2 -19 4 -3 59 -10 122 -17 63 -6 138 -20
167 -31 96 -36 87 128 90 -1618 2 -844 0 -1554 -3 -1578 -13 -90 -78 -124
-265 -138 -95 -7 -122 -17 -114 -39 6 -13 90 -15 675 -15 646 1 669 1 669 19
0 24 -19 31 -83 31 -76 1 -203 26 -240 47 -65 38 -62 -2 -63 870 -2 729 0 793
15 794 66 4 1595 3 1601 -1 4 -3 7 -360 6 -795 -1 -888 3 -833 -76 -872 -49
-24 -76 -29 -190 -38 -108 -9 -120 -12 -120 -35 0 -20 9 -20 670 -20 l669 0
-8 23 c-7 20 -17 23 -97 29 -208 16 -266 47 -279 149 -3 29 -5 740 -3 1579 3
1618 1 1552 47 1587 31 23 107 42 215 52 102 10 133 21 120 43 -3 4 -304 8
-670 8 -657 0 -664 0 -664 -20 0 -12 7 -20 18 -20 9 0 69 -7 133 -14 171 -21
212 -43 227 -127 5 -25 8 -360 8 -745 l-1 -699 -810 0 -810 0 -2 685 c-1 377
2 712 7 744 11 73 36 102 105 121 39 11 220 35 266 35 5 0 9 9 9 20 0 20 -7
20 -669 20 -579 0 -670 -2 -674 -15z"/>
</g>
</svg>
